<svg width="512" height="512" viewBox="0 0 512 512" fill="none" xmlns="http://www.w3.org/2000/svg">
  <path d="M0 512V256V0H512V512H0Z" fill="#F92944" />
  <path d="M166 401V353H152V401C152 411.667 157.1 433 177.5 433H214.5V412.5H177.5C173.667 412.5 166 410.2 166 401Z"
    fill="white" stroke="white" />
  <path
    d="M339.5 411C351.833 410.833 376.4 403 376 373H411C410.333 393.333 395.1 434 339.5 434H236.5C233.333 434 227 435.6 227 442C227 448 222 449.5 219.5 449.5C215.9 449.5 215 447.167 215 446C215 442.8 218 442 219.5 442C222.7 442 223.5 439.667 223.5 438.5V429L223.5 416V406.5C223.5 405.333 222.7 403 219.5 403C218 403 215 402.2 215 399C215 397.833 215.9 395.5 219.5 395.5C222 395.5 227 397 227 403C227 405.667 228.9 411 236.5 411H339.5Z"
    fill="white" stroke="black" stroke-width="14" />
  <path
    d="M158.2 126C162.2 124.9 168.4 123.6 172 123.1C175.6 122.6 213.8 122.2 257 122.1C307 122 338.6 122.4 344 123.1C348.7 123.6 356.3 125.4 361 126.9C365.7 128.5 371.7 131 374.5 132.5C377.2 134 381.5 136.7 384 138.5C386.5 140.3 391.6 145.1 395.5 149.2C399.4 153.3 404.4 160 406.7 164.1C409.1 168.2 411.9 174.2 413.1 177.5C414.2 180.8 415.8 186.7 416.5 190.5C417.6 196 417.9 216.5 418.1 283.5C418.3 360.3 418.1 370 416.7 374.5C415.6 377.7 413.5 381 410.8 383.7C407.8 386.6 404.8 388.5 401 389.6C397.5 390.7 393.7 391.1 390.5 390.8C387.8 390.5 383.7 389.3 381.5 388.2C379.3 387.1 376.6 385.1 375.4 383.8C374.3 382.6 372.7 380.4 371.8 379C371 377.6 369.7 373.8 369 370.5C368.2 366.5 367.9 357.4 368.5 321.2L366 318.6C364.3 316.8 362.5 316 360.2 316C358 316 356.1 316.9 354.5 318.5C352.9 320.1 352 322.2 352 324.2C351.9 326 352 336.9 352 348.5C352 364.6 351.7 370.6 350.5 374C349.7 376.5 347.5 380.3 345.7 382.5C343.8 384.7 340.1 387.6 337.4 389C333.4 391 331 391.5 325 391.5C319.5 391.5 316.3 390.9 313 389.4C310.5 388.2 307.1 385.9 305.5 384.3C303.9 382.7 301.6 379.6 300.6 377.4C299.6 375.3 298.3 370.1 297.8 366C297.1 360.6 296.2 357.9 294.6 356.2C293.5 355 291.5 354 290.3 354C289 354 287.1 355.2 286 356.7C284.6 358.567 283.933 361 284 364C284 366.5 283.4 370.7 282.6 373.5C281.6 376.7 279.7 379.9 277.3 382.3C275.2 384.5 271.7 387.1 269.5 388.3C266.4 389.9 263.6 390.4 257.5 390.4C250.6 390.5 248.9 390.1 245 387.9C242.5 386.4 239.2 383.7 237.6 381.9C236 380 234 376.9 233.2 375C232.4 373.1 231.3 368.4 230.9 364.5C230.3 360.3 229.3 356.8 228.2 355.7C227.3 354.7 225.5 353.9 224.3 354C223 354 221.1 355 220 356.2C219 357.5 217.8 360.5 217.5 363C217.2 365.5 217 369 217 370.8C217 372.5 216.4 375.5 215.6 377.3C214.9 379 212.8 382 210.9 383.9C209 385.7 205.5 388.2 203 389.3C200.1 390.6 196.2 391.3 192 391.4C188.1 391.5 183.7 390.8 181 389.8C178.5 388.9 174.8 386.3 172.8 384.1C170.7 381.8 168.5 378.8 167.9 377.3C167.3 375.7 166.4 370.9 165.9 366.5C165.3 362.1 164.3 357.5 163.5 356.3C162.6 355 161 354 159.8 354C158.5 354 156.7 354.6 155.8 355.3C154.9 356 153.6 358.1 153 360C152.5 361.9 152 365.7 151.9 368.5C151.9 371.3 151.3 374.9 150.7 376.7C150 378.5 147.9 381.6 146 383.6C144.1 385.6 141.2 388 139.5 388.8C137.8 389.6 133.1 390.5 129 390.8C122.7 391.2 120.7 390.9 116.1 388.9C112.8 387.4 109 384.7 106.6 381.9C104.3 379.4 101.6 374.9 100.5 371.9C98.6 366.7 98.5 363.6 98.2 286.5C98 231.5 98.2 204 99 198.5C99.6 194.1 101 187.4 102.2 183.5C103.3 179.7 105.9 173.1 108 169C110.1 164.9 113.4 159.3 115.5 156.5C117.6 153.8 121.3 149.3 123.9 146.7C126.4 144 131.2 139.9 134.5 137.5C137.8 135.2 142.9 132.1 145.8 130.6C148.6 129.2 154.3 127.1 158.2 126Z"
    fill="#060709" />
  <path
    d="M151 142.7C156.2 140.2 163.7 137.5 167.5 136.7C173.4 135.4 187.8 135.2 257.7 135.1C328.6 135 342.2 135.2 348.7 136.5C353.3 137.4 360.2 139.9 365.5 142.4C371.9 145.5 376.7 148.8 381.9 153.7C385.9 157.4 391.2 163.4 393.6 167C395.9 170.6 399.1 176.7 400.5 180.5C402 184.4 403.8 190.8 404.6 194.8C405.7 200.6 406 217.7 406 285C406 338 405.6 368.9 405 370.5C404.4 371.9 402.8 374.1 401.3 375.5C399.1 377.6 397.5 378.1 393.5 378C390.7 378 387.5 377.3 386.3 376.5C385 375.7 383.4 374 382.8 372.8C381.9 371.2 381.3 362.6 380.5 318.5L377.8 313.8C376.2 311.1 373.1 307.8 370.8 306.3C367.4 304 365.5 303.5 360.6 303.5C355.8 303.5 353.5 304.1 349.8 306.3C346.6 308.1 344.1 310.6 339.5 318.5V343.5C339.5 366.9 339.4 368.7 337.4 372C336.3 373.9 333.8 376.5 331.9 377.8C330 379.1 327 380 325 380C323.1 380 320 379.2 318.1 378.2C316.2 377.3 313.8 375.4 312.8 374C311.8 372.6 310.5 368.1 309.9 363.5C309.3 359.1 307.7 353.4 306.4 350.8C305 348 302.6 345.2 300.8 344.1C299 343 295.9 341.9 294 341.5C292.1 341.1 288.5 341.4 286 342C283.2 342.8 280.1 344.6 277.9 346.9C275.9 348.9 273.8 352.3 273.2 354.5C272.6 356.7 271.8 361.1 271.5 364.3C271.1 368.9 270.4 370.7 267.8 373.6C266 375.5 262.9 377.6 261 378.2C259.1 378.7 256 378.9 254.3 378.6C252.5 378.3 249.8 376.9 248.3 375.7C246.7 374.4 245 372 244.3 370.4C243.7 368.8 243 364.8 242.7 361.5C242.5 358.2 241.3 353.6 240.1 351.3C239 348.9 236.8 346.1 235.3 344.9C233.7 343.8 230.7 342.4 228.5 341.9C225.7 341.2 223.1 341.2 220 341.9C217.3 342.6 214.1 344.3 212.1 346.3C210.3 348 208.1 350.9 207.3 352.5C206.4 354.1 205.5 358.9 205.3 363C205 367.1 204.1 371.5 203.4 372.8C202.6 374 200.5 375.9 198.8 377C196.8 378.2 193.7 379 191.3 379C188.9 379 185.8 378.3 184.3 377.5C182.7 376.6 180.9 374.9 180.1 373.7C179.3 372.5 178.3 367.8 177.8 363.3C177.4 358.6 176.1 353.3 175 351C173.9 348.8 171.8 346.1 170.3 344.9C168.7 343.8 165.7 342.4 163.5 341.8C160.5 340.9 158.5 340.9 155.3 341.8C152.9 342.5 149.8 343.8 148.4 344.8C146.9 345.7 144.6 348.5 143.2 351C141.4 354.2 140.5 357.4 140.2 362C140 365.6 139.3 369.8 138.7 371.4C138 373 136.3 375.4 134.8 376.7C132.6 378.5 130.8 379 126.8 379C122.9 379 120.6 378.4 118 376.7C116.1 375.4 113.6 372.6 112.5 370.4C110.6 366.6 110.5 364.2 110.2 292.5C110 248.8 110.3 213.8 110.9 207C111.5 200.7 112.6 192.8 113.5 189.5C114.3 186.2 117.1 179.2 119.7 174C123.5 166.1 125.8 163 132.9 155.9C140.2 148.6 143 146.6 151 142.7Z"
    fill="#FEFEFD" />
  <path
    d="M319.6 193C322.3 191.7 326.7 190 329.5 189.3C332.3 188.6 337.2 188.3 340.5 188.5C344.3 188.8 348.7 190.1 352.5 191.9C356 193.6 360.5 197 363.3 199.9C365.9 202.7 369.2 207.6 370.8 210.7C373.2 215.8 373.5 217.7 373.5 226C373.5 234.7 373.2 236.2 370.4 242C368.5 246 365.5 250 362.9 252.3C360.5 254.4 356.5 257.1 354 258.3C350.2 260.2 347.8 260.5 338 260.5C327.1 260.5 326.2 260.3 321.1 257.5C318.1 255.9 313.7 252.2 311.3 249.5C308.9 246.7 305.7 242 304.2 239C301.9 234.3 301.5 232.3 301.5 224.5C301.5 216.8 301.9 214.7 304.2 210C305.7 207 308.6 202.5 310.7 200C312.9 197.5 316.9 194.4 319.6 193Z"
    fill="#060709" />
  <path d="M379.5 392.5C380.5 391.333 382.4 385 382 369H405C404 376.833 401.4 392.5 399 392.5H379.5Z" fill="white" />
  <path
    d="M324.2 204.8C326 203.6 329.1 202 331 201.3C332.9 200.6 336.1 200.1 338 200C339.9 200 343.1 200.4 345 201C346.9 201.5 350.5 203.6 353 205.8C355.8 208.2 358.4 211.7 359.9 215.1C361.8 219.5 362.2 221.7 361.8 226.5C361.5 229.8 360.4 234.3 359.2 236.5C358.1 238.7 355.7 241.9 353.8 243.7C352 245.4 349.1 247.4 347.5 248C345.9 248.6 342.3 249.1 339.5 249.2C336.8 249.2 332.7 248.7 326.5 246.7L331.5 244.5C334.3 243.3 337.5 241.2 338.7 239.9C339.9 238.6 341.6 235.8 342.4 233.7C343.3 231.7 344 229 344 227.7C344 226.5 343.5 223.8 343 221.7C342.4 219.7 340.5 216.3 338.7 214.2C336.8 212.2 334 209.9 332.4 209.2C330.8 208.4 327.6 208 325.3 208.2C322.9 208.4 321 208.2 321 207.7C321 207.3 322.5 206 324.2 204.8Z"
    fill="#FEFEFD" />
</svg>